<svg width="612" height="612" viewBox="0 0 612 612" fill="none" xmlns="http://www.w3.org/2000/svg">
<path d="M432.32 334.42L327.133 219.67C321.701 213.76 314.052 210.375 306 210.375C297.948 210.375 290.298 213.76 284.848 219.67L179.66 334.42L179.737 334.478C175.051 339.603 172.125 346.335 172.125 353.813C172.125 369.649 184.977 382.501 200.813 382.501C209.19 382.501 216.648 378.867 221.889 373.148L221.966 373.206L306 281.52L390.035 373.205L390.111 373.147C395.351 378.866 402.83 382.5 411.187 382.5C427.023 382.5 439.875 369.648 439.875 353.812C439.875 346.334 436.949 339.602 432.264 334.477L432.32 334.42ZM306 0C137.012 0 0 137.012 0 306C0 474.988 137.012 612 306 612C474.988 612 612 474.988 612 306C612 137.012 474.988 0 306 0ZM306 554.625C168.912 554.625 57.375 443.088 57.375 306C57.375 168.912 168.912 57.375 306 57.375C443.088 57.375 554.625 168.912 554.625 306C554.625 443.088 443.088 554.625 306 554.625Z" fill="#F5F5F5"/>
</svg>
